<?xml version="1.0" encoding="UTF-8"?>
<svg id="_레이어_1" data-name="레이어 1" xmlns="http://www.w3.org/2000/svg" viewBox="0 0 265.38 64.34">
  <defs>
    <style>
      .cls-1, .cls-2 {
        fill: #231815;
      }

      .cls-2 {
        font-family: Paperlogy-9Black, Paperlogy;
        font-size: 19px;
        font-weight: 800;
      }

      .cls-3 {
        fill: #4eaa4b;
      }
    </style>
  </defs>
  <g>
    <path class="cls-1" d="M6.48,57.62C2.16,53.14,0,46.76,0,38.5V7.3h13.92v30.64c0,4.85.92,8.39,2.76,10.6,1.84,2.21,4.52,3.32,8.04,3.32s6.19-1.11,8-3.32c1.81-2.21,2.72-5.75,2.72-10.6V7.3h13.76v31.2c0,8.27-2.16,14.64-6.48,19.12s-10.37,6.72-18.16,6.72-13.76-2.24-18.08-6.72Z"/>
    <path class="cls-1" d="M84.4,19.3v13.04c-1.17-.16-2.19-.24-3.04-.24-3.2,0-5.71.92-7.52,2.76-1.81,1.84-2.72,4.65-2.72,8.44v20h-13.44V20.02h12.8v4.96c3.04-3.79,7.68-5.68,13.92-5.68Z"/>
    <path class="cls-1" d="M102.8,20.02v43.28h-13.44V20.02h13.44Z"/>
    <path class="cls-1" d="M146.16,63.3h-37.44v-8.48l19.92-24h-19.28v-10.8h36.16v8.48l-19.84,24h20.48v10.8Z"/>
    <path class="cls-1" d="M192.76,43.74c-.08.67-.15,1.32-.2,1.96h-30.24c.64,2.24,1.88,3.97,3.72,5.2,1.84,1.23,4.17,1.84,7,1.84,2.03,0,3.8-.31,5.32-.92,1.52-.61,3-1.59,4.44-2.92l7.04,8.08c-3.89,4.69-9.63,7.04-17.2,7.04-4.75,0-8.93-.96-12.56-2.88-3.63-1.92-6.43-4.59-8.4-8-1.97-3.41-2.96-7.25-2.96-11.52s.97-8.09,2.92-11.48c1.95-3.39,4.63-6.04,8.04-7.96,3.41-1.92,7.23-2.88,11.44-2.88s7.81.91,11.12,2.72c3.31,1.81,5.91,4.43,7.8,7.84,1.89,3.41,2.84,7.41,2.84,12,0,.59-.04,1.21-.12,1.88ZM165.16,31.94c-1.63,1.33-2.65,3.2-3.08,5.6h18.08c-.43-2.35-1.43-4.2-3-5.56-1.57-1.36-3.56-2.04-5.96-2.04s-4.41.67-6.04,2Z"/>
    <path class="cls-1" d="M236.84,24.14c3.17,3.23,4.76,8.04,4.76,14.44v24.72h-13.44v-22.48c0-6.24-2.48-9.36-7.44-9.36-2.61,0-4.72.89-6.32,2.68-1.6,1.79-2.4,4.47-2.4,8.04v21.12h-13.52V20.02h12.88v4.16c1.6-1.6,3.53-2.81,5.8-3.64,2.27-.83,4.68-1.24,7.24-1.24,5.12,0,9.27,1.61,12.44,4.84Z"/>
    <g>
      <path class="cls-3" d="M104.76,0l1.47.17.05.05c.03.23.08.46.11.69.36,3.39-.41,7.33-2.28,10.18-3.11,4.75-8.97,6.51-14.44,5.75l-.05-.05-.17-1.47c.02-.56-.02-1.13,0-1.69.16-3.64,1.48-7.32,4.13-9.87,2.51-2.41,6.04-3.6,9.48-3.75h1.69Z"/>
      <path class="cls-3" d="M89.45,15.32l.17,1.47.05.05c5.47.77,11.33-.99,14.44-5.75,1.87-2.86,2.64-6.8,2.28-10.18-.02-.23-.08-.46-.11-.69l-.05-.05-1.47-.17h1.73"/>
      <path class="cls-3" d="M103.07,0c-3.44.15-6.97,1.35-9.48,3.75-2.66,2.55-3.97,6.23-4.13,9.87"/>
    </g>
  </g>
  <text class="cls-2" transform="translate(242.36 17.95)"><tspan x="0" y="0">®</tspan></text>
</svg>